<svg xmlns="http://www.w3.org/2000/svg" viewBox="0 0 99.01 99.01"><defs><style>.cls-1{stroke:#fffaee;stroke-miterlimit:10;stroke-width:6px;}.cls-2{fill:none;}</style></defs><g id="レイヤー_2" data-name="レイヤー 2"><g id="レイヤー_2-2" data-name="レイヤー 2"><path class="cls-1" d="M49.51,37a10,10,0,1,0-10-10A10,10,0,0,0,49.51,37Zm0-18a8,8,0,1,1-8,8A8,8,0,0,1,49.51,19Z"/><path class="cls-1" d="M54.28,44a17.9,17.9,0,0,0-9.55,0C33.58,47.2,26.05,62.05,26,81v1H73V81C73.06,62.13,65.53,47.27,54.28,44ZM28,80c.3-17.57,7.18-31.19,17.27-34a15.75,15.75,0,0,1,8.45,0C63.92,48.89,70.8,62.51,71,80Z"/><rect class="cls-2" width="99.01" height="99.01"/></g></g></svg>