<svg id="レイヤー_1" data-name="レイヤー 1" xmlns="http://www.w3.org/2000/svg" viewBox="0 0 100 19.56"><defs><style>.cls-1{fill:#38546d;}</style></defs><path class="cls-1" d="M28.27,4.18,25,12.88h1.34l.95-2.53h3.4l.91,2.53H33L29.8,4.18Zm-.59,5L29,5.61,30.29,9.2Z" transform="translate(0 0)"/><path class="cls-1" d="M38.9,11.9c-1.08,0-1.7-.86-1.7-2.08V9.76c0-1.23.66-2.08,1.74-2.08A1.49,1.49,0,0,1,40.48,9l1.24-.38a2.7,2.7,0,0,0-2.76-2A3,3,0,0,0,35.9,9.78a3,3,0,0,0,3,3.21,2.78,2.78,0,0,0,2.84-2.06l-1.23-.38A1.53,1.53,0,0,1,38.9,11.9Z" transform="translate(0 0)"/><path class="cls-1" d="M47.64,11.9c-1.07,0-1.7-.86-1.7-2.08V9.76c0-1.23.67-2.08,1.74-2.08A1.5,1.5,0,0,1,49.23,9l1.23-.38a2.7,2.7,0,0,0-2.75-2,3,3,0,0,0-3.07,3.19,3,3,0,0,0,3,3.21,2.78,2.78,0,0,0,2.84-2.06l-1.23-.38A1.52,1.52,0,0,1,47.64,11.9Z" transform="translate(0 0)"/><path class="cls-1" d="M56.46,11.94a1.68,1.68,0,0,1-1.79-1.7h4.65V9.76c0-1.95-1.09-3.17-2.91-3.17a3,3,0,0,0-3,3.24A2.92,2.92,0,0,0,56.46,13a2.87,2.87,0,0,0,2.88-1.72l-1.14-.44A1.66,1.66,0,0,1,56.46,11.94Zm-.08-4.3A1.51,1.51,0,0,1,58,9.27H54.64A1.72,1.72,0,0,1,56.38,7.64Z" transform="translate(0 0)"/><path class="cls-1" d="M65.16,9.23C64,9,63.62,8.91,63.62,8.4s.43-.78,1.1-.78a1.82,1.82,0,0,1,1.56.82l1.11-.55a3.24,3.24,0,0,0-2.67-1.32,2.11,2.11,0,0,0-2.33,1.91c0,1.19,1,1.59,2.13,1.82,1,.21,1.69.33,1.69.87s-.42.82-1.11.82a2,2,0,0,1-1.68-.82l-1.11.59a3.3,3.3,0,0,0,2.74,1.29,2.15,2.15,0,0,0,2.41-2C67.46,9.86,66.29,9.45,65.16,9.23Z" transform="translate(0 0)"/><path class="cls-1" d="M73.26,9.23c-1.12-.23-1.54-.32-1.54-.83s.43-.78,1.1-.78a1.82,1.82,0,0,1,1.56.82l1.11-.55a3.24,3.24,0,0,0-2.67-1.32,2.11,2.11,0,0,0-2.33,1.91c0,1.19,1,1.59,2.13,1.82,1,.21,1.69.33,1.69.87s-.42.82-1.11.82a2,2,0,0,1-1.68-.82l-1.11.59a3.3,3.3,0,0,0,2.74,1.29,2.15,2.15,0,0,0,2.41-2C75.56,9.86,74.39,9.45,73.26,9.23Z" transform="translate(0 0)"/><path class="cls-1" d="M81.66,6.59a3,3,0,0,0-3.1,3.21A3,3,0,0,0,81.64,13,3,3,0,0,0,84.76,9.8,3,3,0,0,0,81.66,6.59Zm1.8,3.25a1.82,1.82,0,0,1-1.82,2.06c-1.1,0-1.78-.79-1.78-2.06V9.79c0-1.3.7-2.11,1.8-2.11s1.8.81,1.8,2.11Z" transform="translate(0 0)"/><path class="cls-1" d="M89.41,7.84V6.7H88.13v6.18h1.28V9.71c0-1.26.3-1.81,1.4-1.81h.59V6.65h-.19C90.08,6.65,89.6,7.12,89.41,7.84Z" transform="translate(0 0)"/><path class="cls-1" d="M98.64,6.7l-1.51,4.61L95.48,6.7H94.13l2.39,6.06C96,14,95.83,14.21,95,14.21h-.59v1.16h.66c1.48,0,2-.58,2.58-2L100,6.7Z" transform="translate(0 0)"/><path class="cls-1" d="M3.18,8.45a1.88,1.88,0,1,0,2.66,0A1.87,1.87,0,0,0,3.18,8.45Z" transform="translate(0 0)"/><path class="cls-1" d="M9.78,0a9.78,9.78,0,1,0,9.78,9.78A9.78,9.78,0,0,0,9.78,0ZM19,9.78c0,4.46-4.14,8.08-9.25,8.08S.53,14.24.53,9.78,4.67,1.7,9.78,1.7,19,5.32,19,9.78Z" transform="translate(0 0)"/></svg>